<mxfile host="65bd71144e">
    <diagram id="qVPOmOTj3OjAkqCo9bpb" name="Page-1">
        <mxGraphModel dx="1056" dy="787" grid="1" gridSize="10" guides="1" tooltips="1" connect="1" arrows="1" fold="1" page="1" pageScale="1" pageWidth="850" pageHeight="1100" math="0" shadow="0">
            <root>
                <mxCell id="0"/>
                <mxCell id="1" parent="0"/>
                <mxCell id="5" value="1. Read emails" style="edgeStyle=none;html=1;" parent="1" source="3" target="4" edge="1">
                    <mxGeometry relative="1" as="geometry"/>
                </mxCell>
                <mxCell id="3" value="Sample Emails" style="verticalLabelPosition=bottom;shadow=0;dashed=0;align=center;html=1;verticalAlign=top;strokeWidth=1;shape=mxgraph.mockup.misc.mail2;strokeColor=#999999;" parent="1" vertex="1">
                    <mxGeometry x="60" y="80" width="100" height="60" as="geometry"/>
                </mxCell>
                <mxCell id="7" value="2. Perform sentiment&lt;br&gt;analysis based &lt;br&gt;on email content&lt;br&gt;and prompt content" style="edgeStyle=none;html=1;" parent="1" source="4" target="6" edge="1">
                    <mxGeometry relative="1" as="geometry"/>
                </mxCell>
                <mxCell id="9" value="3. Generate sentiment analysis" style="edgeStyle=none;html=1;" parent="1" source="4" target="8" edge="1">
                    <mxGeometry relative="1" as="geometry"/>
                </mxCell>
                <mxCell id="4" value="Sentiment Analysis Utility&lt;br&gt;(Python based)" style="shape=process;whiteSpace=wrap;html=1;backgroundOutline=1;verticalAlign=top;strokeColor=#999999;shadow=0;dashed=0;strokeWidth=1;" parent="1" vertex="1">
                    <mxGeometry x="320" y="80" width="120" height="60" as="geometry"/>
                </mxCell>
                <mxCell id="6" value="OpenAI - GPT4" style="rounded=1;whiteSpace=wrap;html=1;verticalAlign=middle;strokeColor=#999999;shadow=0;dashed=0;strokeWidth=1;" parent="1" vertex="1">
                    <mxGeometry x="600" y="80" width="120" height="60" as="geometry"/>
                </mxCell>
                <mxCell id="8" value="Sentiment analysis output" style="shape=note;whiteSpace=wrap;html=1;backgroundOutline=1;darkOpacity=0.05;" parent="1" vertex="1">
                    <mxGeometry x="340" y="200" width="80" height="100" as="geometry"/>
                </mxCell>
            </root>
        </mxGraphModel>
    </diagram>
</mxfile>